<svg width="499" height="430" viewBox="0 0 499 430" fill="none" xmlns="http://www.w3.org/2000/svg">
<path fill-rule="evenodd" clip-rule="evenodd" d="M498.99 74.9985V30.9883H498.01V74.9985H424.99V30.9883H424.01V74.9985H350.99V30.9883H350.01V74.9985H276.99V30.9883H276.01V74.9985H202.99V30.9883H202.01V74.9985H128.99V30.9883H128.01V74.9985H54.9897V30.9883H54.0102V74.9985H-19.0103V30.9883H-19.9897V74.9985H-93.0103V30.9883H-93.9897V74.9985H-167.01V30.9883H-167.99V74.9985H-241.01V30.9883H-241.99V74.9985H-315.01V30.9883H-315.99V74.9985H-389.01V30.9883H-389.99V74.9985H-392V75.978H-389.99V148.999H-392V149.978H-389.99V222.999H-392V223.978H-389.99V296.999H-392V297.978H-389.99V370.999H-392V371.978H-389.99V444.999H-392V445.978H-389.99V518.999H-392V519.978H-389.99V592.999H-392V593.978H-389.99V666.999H-392V667.978H-389.99V740.999H-392V741.978H-389.99V741.988H-389.01V741.978H-315.99V741.988H-315.01V741.978H-241.99V741.988H-241.01V741.978H-167.99V741.988H-167.01V741.978H-93.9897V741.988H-93.0103V741.978H-19.9897V741.988H-19.0103V741.978H54.0102V741.988H54.9897V741.978H128.01V741.988H128.99V741.978H202.01V741.988H202.99V741.978H276.01V741.988H276.99V741.978H350.01V741.988H350.99V741.978H424.01V741.988H424.99V741.978H498.01V741.988H498.99V741.978H499V740.999H498.99V667.978H499V666.999H498.99V593.978H499V592.999H498.99V519.978H499V518.999H498.99V445.978H499V444.999H498.99V371.978H499V370.999H498.99V297.978H499V296.999H498.99V223.978H499V222.999H498.99V149.978H499V148.999H498.99V75.978H499V74.9985H498.99ZM-389.01 740.999H-315.99V667.978H-389.01V740.999ZM-389.01 666.999H-315.99V593.978H-389.01V666.999ZM-389.01 592.999H-315.99V519.978H-389.01V592.999ZM-389.01 518.999H-315.99V445.978H-389.01V518.999ZM-389.01 444.999H-315.99V371.978H-389.01V444.999ZM-389.01 370.999H-315.99V297.978H-389.01V370.999ZM-389.01 296.999H-315.99V223.978H-389.01V296.999ZM-389.01 222.999H-315.99V149.978H-389.01V222.999ZM-389.01 148.999H-315.99V75.978H-389.01V148.999ZM-315.01 148.999V75.978H-241.99V148.999H-315.01ZM-315.01 222.999V149.978H-241.99V222.999H-315.01ZM-315.01 296.999V223.978H-241.99V296.999H-315.01ZM-315.01 370.999V297.978H-241.99V370.999H-315.01ZM-315.01 444.999V371.978H-241.99V444.999H-315.01ZM-315.01 518.999V445.978H-241.99V518.999H-315.01ZM-315.01 592.999V519.978H-241.99V592.999H-315.01ZM-315.01 666.999V593.978H-241.99V666.999H-315.01ZM-315.01 740.999V667.978H-241.99V740.999H-315.01ZM-241.01 740.999H-167.99V667.978H-241.01V740.999ZM-241.01 666.999H-167.99V593.978H-241.01V666.999ZM-241.01 592.999H-167.99V519.978H-241.01V592.999ZM-241.01 518.999H-167.99V445.978H-241.01V518.999ZM-241.01 444.999H-167.99V371.978H-241.01V444.999ZM-241.01 370.999H-167.99V297.978H-241.01V370.999ZM-241.01 296.999H-167.99V223.978H-241.01V296.999ZM-241.01 222.999H-167.99V149.978H-241.01V222.999ZM-241.01 148.999H-167.99V75.978H-241.01V148.999ZM-167.01 148.999V75.978H-93.9897V148.999H-167.01ZM-167.01 222.999V149.978H-93.9897V222.999H-167.01ZM-167.01 296.999V223.978H-93.9897V296.999H-167.01ZM-167.01 370.999V297.978H-93.9897V370.999H-167.01ZM-167.01 444.999V371.978H-93.9897V444.999H-167.01ZM-167.01 518.999V445.978H-93.9897V518.999H-167.01ZM-167.01 592.999V519.978H-93.9897V592.999H-167.01ZM-167.01 666.999V593.978H-93.9897V666.999H-167.01ZM-167.01 740.999V667.978H-93.9897V740.999H-167.01ZM-93.0103 740.999H-19.9897V667.978H-93.0103V740.999ZM-93.0103 666.999H-19.9897V593.978H-93.0103V666.999ZM-93.0103 592.999H-19.9897V519.978H-93.0103V592.999ZM-93.0103 518.999H-19.9897V445.978H-93.0103V518.999ZM-93.0103 444.999H-19.9897V371.978H-93.0103V444.999ZM-93.0103 370.999H-19.9897V297.978H-93.0103V370.999ZM-93.0103 296.999H-19.9897V223.978H-93.0103V296.999ZM-93.0103 222.999H-19.9897V149.978H-93.0103V222.999ZM-93.0103 148.999H-19.9897V75.978H-93.0103V148.999ZM-19.0103 148.999V75.978H54.0102V148.999H-19.0103ZM-19.0103 222.999V149.978H54.0102V222.999H-19.0103ZM-19.0103 296.999V223.978H54.0102V296.999H-19.0103ZM-19.0103 370.999V297.978H54.0102V370.999H-19.0103ZM-19.0103 444.999V371.978H54.0102V444.999H-19.0103ZM-19.0103 518.999V445.978H54.0102V518.999H-19.0103ZM-19.0103 592.999V519.978H54.0102V592.999H-19.0103ZM-19.0103 666.999V593.978H54.0102V666.999H-19.0103ZM-19.0103 740.999V667.978H54.0102V740.999H-19.0103ZM54.9897 740.999H128.01V667.978H54.9897V740.999ZM54.9897 666.999H128.01V593.978H54.9897V666.999ZM54.9897 592.999H128.01V519.978H54.9897V592.999ZM54.9897 518.999H128.01V445.978H54.9897V518.999ZM54.9897 444.999H128.01V371.978H54.9897V444.999ZM54.9897 370.999H128.01V297.978H54.9897V370.999ZM54.9897 296.999H128.01V223.978H54.9897V296.999ZM54.9897 222.999H128.01V149.978H54.9897V222.999ZM54.9897 148.999H128.01V75.978H54.9897V148.999ZM128.99 148.999V75.978H202.01V148.999H128.99ZM128.99 222.999V149.978H202.01V222.999H128.99ZM128.99 296.999V223.978H202.01V296.999H128.99ZM128.99 370.999V297.978H202.01V370.999H128.99ZM128.99 444.999V371.978H202.01V444.999H128.99ZM128.99 518.999V445.978H202.01V518.999H128.99ZM128.99 592.999V519.978H202.01V592.999H128.99ZM128.99 666.999V593.978H202.01V666.999H128.99ZM128.99 740.999V667.978H202.01V740.999H128.99ZM202.99 740.999H276.01V667.978H202.99V740.999ZM202.99 666.999H276.01V593.978H202.99V666.999ZM202.99 592.999H276.01V519.978H202.99V592.999ZM202.99 518.999H276.01V445.978H202.99V518.999ZM202.99 444.999H276.01V371.978H202.99V444.999ZM202.99 370.999H276.01V297.978H202.99V370.999ZM202.99 296.999H276.01V223.978H202.99V296.999ZM202.99 222.999H276.01V149.978H202.99V222.999ZM202.99 148.999H276.01V75.978H202.99V148.999ZM276.99 148.999V75.978H350.01V148.999H276.99ZM276.99 222.999V149.978H350.01V222.999H276.99ZM276.99 296.999V223.978H350.01V296.999H276.99ZM276.99 370.999V297.978H350.01V370.999H276.99ZM276.99 444.999V371.978H350.01V444.999H276.99ZM276.99 518.999V445.978H350.01V518.999H276.99ZM276.99 592.999V519.978H350.01V592.999H276.99ZM276.99 666.999V593.978H350.01V666.999H276.99ZM276.99 740.999V667.978H350.01V740.999H276.99ZM350.99 740.999H424.01V667.978H350.99V740.999ZM350.99 666.999H424.01V593.978H350.99V666.999ZM350.99 592.999H424.01V519.978H350.99V592.999ZM350.99 518.999H424.01V445.978H350.99V518.999ZM350.99 444.999H424.01V371.978H350.99V444.999ZM350.99 370.999H424.01V297.978H350.99V370.999ZM350.99 296.999H424.01V223.978H350.99V296.999ZM350.99 222.999H424.01V149.978H350.99V222.999ZM350.99 148.999H424.01V75.978H350.99V148.999ZM424.99 148.999V75.978H498.01V148.999H424.99ZM424.99 222.999V149.978H498.01V222.999H424.99ZM424.99 296.999V223.978H498.01V296.999H424.99ZM424.99 370.999V297.978H498.01V370.999H424.99ZM424.99 444.999V371.978H498.01V444.999H424.99ZM424.99 518.999V445.978H498.01V518.999H424.99ZM424.99 592.999V519.978H498.01V592.999H424.99ZM424.99 666.999V593.978H498.01V666.999H424.99ZM424.99 740.999V667.978H498.01V740.999H424.99ZM-392 0.998535H499V1.97803H-392V0.998535Z" fill="url(#paint0_radial_1176_163986)"/>
<defs>
<radialGradient id="paint0_radial_1176_163986" cx="0" cy="0" r="1" gradientUnits="userSpaceOnUse" gradientTransform="translate(54.0087 593.143) rotate(-90) scale(427.678 513.1)">
<stop stop-color="#C1E1C6"/>
<stop offset="1" stop-color="#C1E1C6" stop-opacity="0"/>
</radialGradient>
</defs>
</svg>
