<svg width="843" height="474" viewBox="0 0 843 474" fill="none" xmlns="http://www.w3.org/2000/svg">
<path fill-rule="evenodd" clip-rule="evenodd" d="M0.0102539 399.99V444H0.989767V399.99H74.0103V444H74.9898V399.99H148.01V444H148.99V399.99H222.01V444H222.99V399.99H296.01V444H296.99V399.99H370.01V444H370.99V399.99H444.01V444H444.99V399.99H518.01V444H518.99V399.99H592.01V444H592.99V399.99H666.01V444H666.99V399.99H740.01V444H740.99V399.99H814.01V444H814.99V399.99H888.01V444H888.99V399.99H891V399.01H888.99V325.99H891V325.01H888.99V251.99H891V251.01H888.99V177.99H891V177.01H888.99V103.99H891V103.01H888.99V29.9897H891V29.0102H888.99V-44.0103H891V-44.9898H888.99V-118.01H891V-118.99H888.99V-192.01H891V-192.99H888.99V-266.01H891V-266.99H888.99V-267H888.01V-266.99H814.99V-267H814.01V-266.99H740.99V-267H740.01V-266.99H666.99V-267H666.01V-266.99H592.99V-267H592.01V-266.99H518.99V-267H518.01V-266.99H444.99V-267H444.01V-266.99H370.99V-267H370.01V-266.99H296.99V-267H296.01V-266.99H222.99V-267H222.01V-266.99H148.99V-267H148.01V-266.99H74.9898V-267H74.0103V-266.99H0.989767V-267H0.0102539V-266.99H0V-266.01H0.0102539V-192.99H0V-192.01H0.0102539V-118.99H0V-118.01H0.0102539V-44.9898H0V-44.0103H0.0102539V29.0102H0V29.9897H0.0102539V103.01H0V103.99H0.0102539V177.01H0V177.99H0.0102539V251.01H0V251.99H0.0102539V325.01H0V325.99H0.0102539V399.01H0V399.99H0.0102539ZM888.01 -266.01H814.99V-192.99H888.01V-266.01ZM888.01 -192.01H814.99V-118.99H888.01V-192.01ZM888.01 -118.01H814.99V-44.9898H888.01V-118.01ZM888.01 -44.0103H814.99V29.0102H888.01V-44.0103ZM888.01 29.9897H814.99V103.01H888.01V29.9897ZM888.01 103.99H814.99V177.01H888.01V103.99ZM888.01 177.99H814.99V251.01H888.01V177.99ZM888.01 251.99H814.99V325.01H888.01V251.99ZM888.01 325.99H814.99V399.01H888.01V325.99ZM814.01 325.99V399.01H740.99V325.99H814.01ZM814.01 251.99V325.01H740.99V251.99H814.01ZM814.01 177.99V251.01H740.99V177.99H814.01ZM814.01 103.99V177.01H740.99V103.99H814.01ZM814.01 29.9897V103.01H740.99V29.9897H814.01ZM814.01 -44.0103V29.0102H740.99V-44.0103H814.01ZM814.01 -118.01V-44.9898H740.99V-118.01H814.01ZM814.01 -192.01V-118.99H740.99V-192.01H814.01ZM814.01 -266.01V-192.99H740.99V-266.01H814.01ZM740.01 -266.01H666.99V-192.99H740.01V-266.01ZM740.01 -192.01H666.99V-118.99H740.01V-192.01ZM740.01 -118.01H666.99V-44.9898H740.01V-118.01ZM740.01 -44.0103H666.99V29.0102H740.01V-44.0103ZM740.01 29.9897H666.99V103.01H740.01V29.9897ZM740.01 103.99H666.99V177.01H740.01V103.99ZM740.01 177.99H666.99V251.01H740.01V177.99ZM740.01 251.99H666.99V325.01H740.01V251.99ZM740.01 325.99H666.99V399.01H740.01V325.99ZM666.01 325.99V399.01H592.99V325.99H666.01ZM666.01 251.99V325.01H592.99V251.99H666.01ZM666.01 177.99V251.01H592.99V177.99H666.01ZM666.01 103.99V177.01H592.99V103.99H666.01ZM666.01 29.9897V103.01H592.99V29.9897H666.01ZM666.01 -44.0103V29.0102H592.99V-44.0103H666.01ZM666.01 -118.01V-44.9898H592.99V-118.01H666.01ZM666.01 -192.01V-118.99H592.99V-192.01H666.01ZM666.01 -266.01V-192.99H592.99V-266.01H666.01ZM592.01 -266.01H518.99V-192.99H592.01V-266.01ZM592.01 -192.01H518.99V-118.99H592.01V-192.01ZM592.01 -118.01H518.99V-44.9898H592.01V-118.01ZM592.01 -44.0103H518.99V29.0102H592.01V-44.0103ZM592.01 29.9897H518.99V103.01H592.01V29.9897ZM592.01 103.99H518.99V177.01H592.01V103.99ZM592.01 177.99H518.99V251.01H592.01V177.99ZM592.01 251.99H518.99V325.01H592.01V251.99ZM592.01 325.99H518.99V399.01H592.01V325.99ZM518.01 325.99V399.01H444.99V325.99H518.01ZM518.01 251.99V325.01H444.99V251.99H518.01ZM518.01 177.99V251.01H444.99V177.99H518.01ZM518.01 103.99V177.01H444.99V103.99H518.01ZM518.01 29.9897V103.01H444.99V29.9897H518.01ZM518.01 -44.0103V29.0102H444.99V-44.0103H518.01ZM518.01 -118.01V-44.9898H444.99V-118.01H518.01ZM518.01 -192.01V-118.99H444.99V-192.01H518.01ZM518.01 -266.01V-192.99H444.99V-266.01H518.01ZM444.01 -266.01H370.99V-192.99H444.01V-266.01ZM444.01 -192.01H370.99V-118.99H444.01V-192.01ZM444.01 -118.01H370.99V-44.9898H444.01V-118.01ZM444.01 -44.0103H370.99V29.0102H444.01V-44.0103ZM444.01 29.9897H370.99V103.01H444.01V29.9897ZM444.01 103.99H370.99V177.01H444.01V103.99ZM444.01 177.99H370.99V251.01H444.01V177.99ZM444.01 251.99H370.99V325.01H444.01V251.99ZM444.01 325.99H370.99V399.01H444.01V325.99ZM370.01 325.99V399.01H296.99V325.99H370.01ZM370.01 251.99V325.01H296.99V251.99H370.01ZM370.01 177.99V251.01H296.99V177.99H370.01ZM370.01 103.99V177.01H296.99V103.99H370.01ZM370.01 29.9897V103.01H296.99V29.9897H370.01ZM370.01 -44.0103V29.0102H296.99V-44.0103H370.01ZM370.01 -118.01V-44.9898H296.99V-118.01H370.01ZM370.01 -192.01V-118.99H296.99V-192.01H370.01ZM370.01 -266.01V-192.99H296.99V-266.01H370.01ZM296.01 -266.01H222.99V-192.99H296.01V-266.01ZM296.01 -192.01H222.99V-118.99H296.01V-192.01ZM296.01 -118.01H222.99V-44.9898H296.01V-118.01ZM296.01 -44.0103H222.99V29.0102H296.01V-44.0103ZM296.01 29.9897H222.99V103.01H296.01V29.9897ZM296.01 103.99H222.99V177.01H296.01V103.99ZM296.01 177.99H222.99V251.01H296.01V177.99ZM296.01 251.99H222.99V325.01H296.01V251.99ZM296.01 325.99H222.99V399.01H296.01V325.99ZM222.01 325.99V399.01H148.99V325.99H222.01ZM222.01 251.99V325.01H148.99V251.99H222.01ZM222.01 177.99V251.01H148.99V177.99H222.01ZM222.01 103.99V177.01H148.99V103.99H222.01ZM222.01 29.9897V103.01H148.99V29.9897H222.01ZM222.01 -44.0103V29.0102H148.99V-44.0103H222.01ZM222.01 -118.01V-44.9898H148.99V-118.01H222.01ZM222.01 -192.01V-118.99H148.99V-192.01H222.01ZM222.01 -266.01V-192.99H148.99V-266.01H222.01ZM148.01 -266.01H74.9898V-192.99H148.01V-266.01ZM148.01 -192.01H74.9898V-118.99H148.01V-192.01ZM148.01 -118.01H74.9898V-44.9898H148.01V-118.01ZM148.01 -44.0103H74.9898V29.0102H148.01V-44.0103ZM148.01 29.9897H74.9898V103.01H148.01V29.9897ZM148.01 103.99H74.9898V177.01H148.01V103.99ZM148.01 177.99H74.9898V251.01H148.01V177.99ZM148.01 251.99H74.9898V325.01H148.01V251.99ZM148.01 325.99H74.9898V399.01H148.01V325.99ZM74.0103 325.99V399.01H0.989767V325.99H74.0103ZM74.0103 251.99V325.01H0.989767V251.99H74.0103ZM74.0103 177.99V251.01H0.989767V177.99H74.0103ZM74.0103 103.99V177.01H0.989767V103.99H74.0103ZM74.0103 29.9897V103.01H0.989767V29.9897H74.0103ZM74.0103 -44.0103V29.0102H0.989767V-44.0103H74.0103ZM74.0103 -118.01V-44.9898H0.989767V-118.01H74.0103ZM74.0103 -192.01V-118.99H0.989767V-192.01H74.0103ZM74.0103 -266.01V-192.99H0.989767V-266.01H74.0103ZM891 473.99H0V473.01H891V473.99Z" fill="url(#paint0_radial_1176_163959)"/>
<defs>
<radialGradient id="paint0_radial_1176_163959" cx="0" cy="0" r="1" gradientUnits="userSpaceOnUse" gradientTransform="translate(444.991 -118.155) rotate(90) scale(427.678 513.1)">
<stop stop-color="#C1E1C6"/>
<stop offset="1" stop-color="#C1E1C6" stop-opacity="0"/>
</radialGradient>
</defs>
</svg>
