<svg width="347" height="48" viewBox="0 0 347 48" fill="none" xmlns="http://www.w3.org/2000/svg">
<path d="M41.9569 4.20243C41.9569 3.37644 41.5183 2.81363 40.7247 2.62063C37.8532 1.89387 34.9402 1.34219 32.0018 0.96864C29.8855 0.716253 27.7557 0.505705 25.6273 0.369389C23.9753 0.264116 22.3153 0.291109 20.6592 0.278962C18.0573 0.250956 15.456 0.377146 12.869 0.656868C11.464 0.818827 10.059 0.978088 8.66205 1.19133C6.29069 1.55439 3.94093 2.03352 1.61141 2.61118C0.758422 2.82308 0.335977 3.34405 0.335977 4.22808V14.9498H0.327879C0.327879 18.2578 0.310333 21.5632 0.338676 24.8725C0.339934 26.0549 0.411593 27.2361 0.553273 28.41C0.889339 31.0135 1.98932 33.2971 3.6683 35.3014C5.49169 37.4689 7.57287 39.3666 9.77553 41.1265C12.7158 43.4612 15.8679 45.5158 19.1908 47.2634C20.5081 47.9599 21.8145 47.9693 23.117 47.2446C24.1805 46.6534 25.2535 46.0771 26.2941 45.4454C30.3255 42.9958 34.0519 40.1548 37.3262 36.7428C38.5814 35.4363 39.6976 34.03 40.5141 32.3996C41.5938 30.2401 41.938 27.916 41.9461 25.542C41.9718 18.4292 41.9569 11.3152 41.9569 4.20243ZM7.56478 28.9823H5.21501V10.176H7.56478V28.9823ZM12.5761 25.0223H10.225V14.136H12.5761V25.0223ZM17.5253 27.0023H15.1742V12.156H17.5253V27.0023ZM22.4732 31.9515H20.1234V7.20679H22.4732V31.9515Z" fill="#268334"/>
<path d="M128.962 27.9927H115.977C116.028 28.1978 116.064 28.38 116.112 28.5568C116.696 30.4909 118.502 31.9391 120.516 32.1334C122.769 32.3521 124.593 31.5086 126.169 29.9119L128.271 32.3575C127.629 33.1871 126.808 33.86 125.868 34.3253C122.508 36.0218 119.169 36.0664 115.986 33.9298C113.771 32.4452 112.571 30.2723 112.328 27.6148C112.059 24.7238 112.963 22.2283 115.097 20.2402C116.947 18.514 119.174 17.796 121.698 18.0065C123.787 18.182 125.588 18.981 127.021 20.5277C128.319 21.9273 128.972 23.6103 129.118 25.5012C129.173 26.335 129.12 27.1723 128.962 27.9927ZM125.408 24.9627C125.041 22.9382 123.483 21.2255 121.107 21.135C118.32 21.0298 116.558 22.7951 116.025 24.9627H125.408Z" fill="black"/>
<path d="M103.204 12.9923V24.2391L103.261 24.2661C103.443 24.0636 103.626 23.8612 103.801 23.6587C105.414 21.8088 107.028 19.9597 108.643 18.1116C108.725 18.0168 108.839 17.9565 108.963 17.9429C110.41 17.9307 111.857 17.9334 113.304 17.9334C113.337 17.9334 113.371 17.9402 113.463 17.9496C111.063 20.7043 108.69 23.4266 106.301 26.1704L114.179 35.2928C114.061 35.3009 113.988 35.3117 113.91 35.3117C112.514 35.3117 111.12 35.3117 109.726 35.3036C109.585 35.2956 109.452 35.2349 109.354 35.1335C107.375 32.8436 105.395 30.5492 103.416 28.2503C103.366 28.1909 103.311 28.1369 103.213 28.033V35.2874H99.622C99.622 35.2051 99.6058 35.1146 99.6058 35.0175C99.6058 28.2952 99.6058 21.5726 99.6058 14.8494C99.5971 14.7697 99.6166 14.6894 99.661 14.6226C99.7054 14.5557 99.7718 14.5066 99.8487 14.4837C100.889 14.0208 101.923 13.5389 102.953 13.0746C103.02 13.0571 103.097 13.0301 103.204 12.9923Z" fill="black"/>
<path d="M81.5698 26.824C81.5105 28.1466 81.2918 29.4315 80.729 30.63C79.6682 32.888 77.8704 34.3322 75.495 34.9678C72.2369 35.8411 69.3176 35.1339 66.8639 32.7679C65.7923 31.7354 65.1633 30.4465 64.8475 29.0023C64.4656 27.3143 64.4938 25.5593 64.9298 23.8844C65.5291 21.59 66.9543 19.9258 69.0409 18.9163C72.3152 17.3358 75.4896 17.6044 78.44 19.7814C80.2107 21.0893 81.1299 22.9099 81.4254 25.0613C81.5051 25.6444 81.5226 26.2369 81.5698 26.824ZM78.0837 26.6188C78.0513 26.2814 78.0445 25.944 77.9838 25.6066C77.6275 23.6766 76.5585 22.3161 74.6771 21.6925C72.4799 20.9678 70.1733 21.7303 68.9383 23.551C68.0665 24.8386 67.8816 26.2801 68.1596 27.7768C68.5038 29.634 69.5578 30.9526 71.3529 31.5788C73.5663 32.3522 75.9013 31.5923 77.1686 29.7541C77.8191 28.8147 78.0594 27.7485 78.0837 26.6188Z" fill="black"/>
<path d="M49.9612 35.2913V12.4941H53.5121V31.7039H64.1097V35.2913H49.9612Z" fill="black"/>
<path d="M97.6804 32.6544C96.7235 33.6649 95.5314 34.423 94.2105 34.8611C90.812 35.9921 87.0275 34.9637 84.7331 32.2711C83.7735 31.1455 83.2674 29.8133 83.0433 28.3692C82.7829 26.6862 82.8449 25.018 83.3943 23.393C84.2567 20.8421 86.0639 19.209 88.5716 18.3992C91.9457 17.3195 94.9825 18.0024 97.5738 20.4696C97.6073 20.5043 97.6388 20.5408 97.6683 20.5789C97.3889 20.8421 97.1203 21.0986 96.8491 21.3523C96.3861 21.7882 95.9178 22.2174 95.4602 22.6588C95.4408 22.686 95.4157 22.7087 95.3866 22.7253C95.3575 22.7419 95.3253 22.752 95.2919 22.7549C95.2586 22.7579 95.225 22.7536 95.1935 22.7423C95.162 22.7311 95.1333 22.7132 95.1093 22.6898C94.1322 22.0433 93.0848 21.5844 91.9039 21.4414C90.7296 21.2891 89.5402 21.5708 88.559 22.2336C87.5778 22.8964 86.8724 23.8947 86.5754 25.0409C86.1503 26.6754 86.3055 28.2653 87.2502 29.7027C88.4973 31.607 90.7999 32.3453 93.0862 31.5666C93.7867 31.3277 94.4359 30.9349 95.1026 30.5988C95.2376 30.5327 95.3145 30.4895 95.4414 30.6069C96.1702 31.2899 96.9138 31.9593 97.6804 32.6544Z" fill="black"/>
<path d="M134.632 35.3104H130.959C130.909 35.3104 130.857 35.3104 130.79 35.3009V18.4058H134.434V19.6948C136.257 18.0671 138.411 17.8511 140.677 17.9537V21.8677C140.128 21.8191 139.571 21.7328 139.013 21.7328C136.753 21.7166 135.099 23.1337 134.74 25.3769C134.674 25.7979 134.64 26.2234 134.639 26.6496C134.63 29.4286 134.639 32.2062 134.639 34.9851L134.632 35.3104Z" fill="black"/>
<path d="M160.595 22.1875C160.49 21.3047 160.066 20.6194 159.323 20.1316C158.579 19.6438 157.668 19.3999 156.587 19.3999C155.798 19.3999 155.106 19.5276 154.514 19.7831C153.927 20.0387 153.469 20.39 153.138 20.8372C152.812 21.2844 152.65 21.7925 152.65 22.3617C152.65 22.8379 152.763 23.2473 152.99 23.59C153.222 23.9268 153.518 24.2085 153.878 24.435C154.238 24.6557 154.616 24.8386 155.011 24.9838C155.406 25.1232 155.768 25.2364 156.1 25.3235L157.911 25.8114C158.376 25.9333 158.893 26.1017 159.462 26.3166C160.037 26.5315 160.586 26.8248 161.108 27.1964C161.637 27.5623 162.073 28.0327 162.415 28.6077C162.758 29.1826 162.929 29.8882 162.929 30.7245C162.929 31.6886 162.677 32.5597 162.171 33.3379C161.672 34.1161 160.94 34.7346 159.976 35.1934C159.018 35.6522 157.853 35.8816 156.483 35.8816C155.205 35.8816 154.099 35.6754 153.164 35.2631C152.235 34.8508 151.503 34.2758 150.969 33.5383C150.44 32.8007 150.141 31.9441 150.071 30.9684H152.301C152.359 31.6421 152.586 32.1996 152.981 32.641C153.382 33.0766 153.887 33.4018 154.497 33.6167C155.112 33.8257 155.774 33.9303 156.483 33.9303C157.307 33.9303 158.048 33.7967 158.704 33.5296C159.36 33.2566 159.88 32.8791 160.263 32.3971C160.647 31.9093 160.838 31.3401 160.838 30.6897C160.838 30.0973 160.673 29.6153 160.342 29.2436C160.011 28.8719 159.575 28.5699 159.035 28.3376C158.495 28.1053 157.911 27.9021 157.284 27.7278L155.089 27.1006C153.695 26.6999 152.592 26.1279 151.779 25.3845C150.966 24.6411 150.559 23.6684 150.559 22.4662C150.559 21.4673 150.829 20.5962 151.369 19.8528C151.915 19.1037 152.647 18.5229 153.565 18.1106C154.488 17.6924 155.519 17.4834 156.657 17.4834C157.807 17.4834 158.829 17.6895 159.723 18.1019C160.618 18.5084 161.326 19.0659 161.849 19.7744C162.377 20.483 162.656 21.2873 162.685 22.1875H160.595ZM171.812 35.8468C170.523 35.8468 169.411 35.5622 168.476 34.993C167.547 34.4181 166.83 33.6167 166.324 32.5887C165.825 31.555 165.575 30.3528 165.575 28.9823C165.575 27.6117 165.825 26.4037 166.324 25.3584C166.83 24.3072 167.532 23.4883 168.433 22.9018C169.338 22.3094 170.395 22.0132 171.603 22.0132C172.3 22.0132 172.989 22.1294 173.668 22.3617C174.347 22.594 174.966 22.9715 175.523 23.4942C176.081 24.011 176.525 24.6963 176.856 25.55C177.187 26.4037 177.353 27.4549 177.353 28.7035V29.5746H167.039V27.7975H175.262C175.262 27.0426 175.111 26.3689 174.809 25.7765C174.513 25.1841 174.089 24.7166 173.537 24.374C172.991 24.0314 172.347 23.86 171.603 23.86C170.785 23.86 170.076 24.0633 169.478 24.4698C168.885 24.8705 168.43 25.3932 168.11 26.0378C167.791 26.6825 167.631 27.3736 167.631 28.1111V29.2959C167.631 30.3064 167.805 31.163 168.154 31.8657C168.508 32.5626 168.999 33.094 169.626 33.4599C170.253 33.8199 170.982 34 171.812 34C172.353 34 172.84 33.9245 173.276 33.7735C173.717 33.6167 174.098 33.3844 174.417 33.0766C174.737 32.763 174.983 32.3739 175.158 31.9093L177.144 32.4668C176.935 33.1404 176.583 33.7328 176.09 34.2439C175.596 34.7491 174.986 35.144 174.26 35.4286C173.534 35.7074 172.718 35.8468 171.812 35.8468ZM185.916 35.8468C184.662 35.8468 183.581 35.5506 182.675 34.9582C181.769 34.3658 181.073 33.5499 180.585 32.5103C180.097 31.4708 179.853 30.2831 179.853 28.9474C179.853 27.5885 180.103 26.3892 180.602 25.3497C181.107 24.3043 181.81 23.4883 182.71 22.9018C183.616 22.3094 184.673 22.0132 185.881 22.0132C186.822 22.0132 187.67 22.1875 188.425 22.5359C189.18 22.8844 189.798 23.3722 190.28 23.9994C190.762 24.6266 191.062 25.3584 191.178 26.1947H189.122C188.965 25.5849 188.617 25.0448 188.076 24.5744C187.542 24.0981 186.822 23.86 185.916 23.86C185.115 23.86 184.412 24.0691 183.808 24.4872C183.21 24.8996 182.742 25.4832 182.405 26.2382C182.074 26.9874 181.909 27.8672 181.909 28.8777C181.909 29.9115 182.071 30.8116 182.397 31.5782C182.728 32.3448 183.192 32.9401 183.79 33.364C184.394 33.788 185.103 34 185.916 34C186.45 34 186.935 33.907 187.371 33.7212C187.806 33.5354 188.175 33.2682 188.477 32.9198C188.779 32.5713 188.994 32.1532 189.122 31.6653H191.178C191.062 32.4552 190.774 33.1666 190.315 33.7996C189.862 34.4268 189.261 34.9263 188.512 35.2979C187.769 35.6638 186.903 35.8468 185.916 35.8468ZM194.183 35.568V22.1875H196.169V24.2085H196.309C196.553 23.5464 196.994 23.0092 197.633 22.5969C198.272 22.1846 198.992 21.9784 199.793 21.9784C199.944 21.9784 200.133 21.9813 200.359 21.9871C200.586 21.9929 200.757 22.0016 200.873 22.0132V24.1039C200.804 24.0865 200.644 24.0604 200.394 24.0255C200.15 23.9849 199.892 23.9646 199.619 23.9646C198.968 23.9646 198.388 24.101 197.877 24.374C197.371 24.6411 196.971 25.0128 196.674 25.489C196.384 25.9594 196.239 26.4966 196.239 27.1006V35.568H194.183ZM208.513 35.8468C207.224 35.8468 206.112 35.5622 205.177 34.993C204.247 34.4181 203.53 33.6167 203.025 32.5887C202.526 31.555 202.276 30.3528 202.276 28.9823C202.276 27.6117 202.526 26.4037 203.025 25.3584C203.53 24.3072 204.233 23.4883 205.133 22.9018C206.039 22.3094 207.096 22.0132 208.304 22.0132C209.001 22.0132 209.689 22.1294 210.369 22.3617C211.048 22.594 211.667 22.9715 212.224 23.4942C212.782 24.011 213.226 24.6963 213.557 25.55C213.888 26.4037 214.053 27.4549 214.053 28.7035V29.5746H203.739V27.7975H211.963C211.963 27.0426 211.812 26.3689 211.51 25.7765C211.214 25.1841 210.79 24.7166 210.238 24.374C209.692 24.0314 209.047 23.86 208.304 23.86C207.485 23.86 206.777 24.0633 206.178 24.4698C205.586 24.8705 205.13 25.3932 204.811 26.0378C204.491 26.6825 204.332 27.3736 204.332 28.1111V29.2959C204.332 30.3064 204.506 31.163 204.854 31.8657C205.209 32.5626 205.699 33.094 206.327 33.4599C206.954 33.8199 207.683 34 208.513 34C209.053 34 209.541 33.9245 209.977 33.7735C210.418 33.6167 210.798 33.3844 211.118 33.0766C211.437 32.763 211.684 32.3739 211.858 31.9093L213.844 32.4668C213.635 33.1404 213.284 33.7328 212.79 34.2439C212.297 34.7491 211.687 35.144 210.961 35.4286C210.235 35.7074 209.419 35.8468 208.513 35.8468ZM223 22.1875V23.9297H216.066V22.1875H223ZM218.087 18.9817H220.143V31.735C220.143 32.3158 220.227 32.7513 220.395 33.0417C220.57 33.3263 220.79 33.5179 221.057 33.6167C221.33 33.7096 221.618 33.756 221.92 33.756C222.146 33.756 222.332 33.7444 222.477 33.7212C222.622 33.6922 222.739 33.6689 222.826 33.6515L223.244 35.4983C223.105 35.5506 222.91 35.6028 222.66 35.6551C222.411 35.7132 222.094 35.7422 221.711 35.7422C221.13 35.7422 220.561 35.6174 220.003 35.3676C219.452 35.1179 218.993 34.7375 218.627 34.2265C218.267 33.7154 218.087 33.0708 218.087 32.2926V18.9817ZM235.331 25.1841L233.484 25.7068C233.368 25.399 233.197 25.0999 232.97 24.8096C232.749 24.5134 232.447 24.2695 232.064 24.0778C231.681 23.8862 231.19 23.7903 230.592 23.7903C229.773 23.7903 229.091 23.9791 228.545 24.3566C228.005 24.7283 227.735 25.2016 227.735 25.7765C227.735 26.2876 227.92 26.6912 228.292 26.9874C228.664 27.2836 229.245 27.5304 230.034 27.7278L232.021 28.2157C233.217 28.506 234.108 28.9503 234.695 29.5485C235.281 30.1409 235.575 30.9046 235.575 31.8396C235.575 32.6062 235.354 33.2914 234.913 33.8954C234.477 34.4994 233.867 34.9756 233.083 35.3241C232.299 35.6725 231.387 35.8468 230.348 35.8468C228.983 35.8468 227.854 35.5506 226.959 34.9582C226.065 34.3658 225.499 33.5005 225.261 32.3622L227.212 31.8744C227.398 32.5945 227.749 33.1346 228.266 33.4947C228.789 33.8548 229.471 34.0348 230.313 34.0348C231.271 34.0348 232.032 33.8315 232.595 33.425C233.165 33.0127 233.449 32.519 233.449 31.9441C233.449 31.4795 233.287 31.0904 232.961 30.7768C232.636 30.4574 232.137 30.2193 231.463 30.0625L229.233 29.5398C228.008 29.2494 227.107 28.7993 226.532 28.1895C225.963 27.5739 225.679 26.8044 225.679 25.881C225.679 25.1261 225.891 24.4582 226.315 23.8775C226.744 23.2967 227.328 22.8408 228.066 22.5098C228.809 22.1788 229.651 22.0132 230.592 22.0132C231.916 22.0132 232.956 22.3036 233.711 22.8844C234.471 23.4651 235.011 24.2317 235.331 25.1841ZM245.847 17.7273H248.426L254.489 32.5365H254.698L260.761 17.7273H263.34V35.568H261.319V22.0132H261.145L255.569 35.568H253.618L248.043 22.0132H247.869V35.568H245.847V17.7273ZM271.33 35.8816C270.482 35.8816 269.713 35.7219 269.022 35.4025C268.331 35.0773 267.782 34.6098 267.375 34C266.969 33.3844 266.765 32.641 266.765 31.7699C266.765 31.0033 266.916 30.3819 267.218 29.9057C267.52 29.4236 267.924 29.0461 268.429 28.7732C268.935 28.5002 269.492 28.297 270.102 28.1634C270.717 28.024 271.336 27.9137 271.957 27.8324C272.77 27.7278 273.43 27.6494 273.935 27.5972C274.446 27.5391 274.818 27.4433 275.05 27.3097C275.288 27.1761 275.407 26.9438 275.407 26.6128V26.5431C275.407 25.6836 275.172 25.0157 274.701 24.5395C274.237 24.0633 273.531 23.8252 272.585 23.8252C271.603 23.8252 270.834 24.0401 270.276 24.4698C269.719 24.8996 269.327 25.3584 269.1 25.8462L267.149 25.1493C267.497 24.3362 267.962 23.7032 268.543 23.2502C269.129 22.7914 269.768 22.472 270.459 22.292C271.156 22.1062 271.841 22.0132 272.515 22.0132C272.945 22.0132 273.438 22.0655 273.996 22.17C274.559 22.2688 275.102 22.4749 275.625 22.7885C276.153 23.1021 276.592 23.5755 276.94 24.2085C277.289 24.8415 277.463 25.6894 277.463 26.7522V35.568H275.407V33.756H275.303C275.163 34.0464 274.931 34.3571 274.606 34.6882C274.28 35.0192 273.848 35.3008 273.308 35.5331C272.768 35.7654 272.108 35.8816 271.33 35.8816ZM271.644 34.0348C272.457 34.0348 273.142 33.8751 273.7 33.5557C274.263 33.2363 274.687 32.8239 274.971 32.3187C275.262 31.8134 275.407 31.282 275.407 30.7245V28.8429C275.32 28.9474 275.128 29.0432 274.832 29.1304C274.542 29.2117 274.205 29.2843 273.822 29.3481C273.444 29.4062 273.075 29.4585 272.715 29.5049C272.361 29.5456 272.074 29.5804 271.853 29.6095C271.319 29.6792 270.819 29.7924 270.355 29.9492C269.896 30.1002 269.524 30.3296 269.239 30.6374C268.961 30.9394 268.821 31.3517 268.821 31.8744C268.821 32.5887 269.086 33.1288 269.614 33.4947C270.148 33.8548 270.825 34.0348 271.644 34.0348ZM283.271 27.5188V35.568H281.215V22.1875H283.201V24.2782H283.376C283.689 23.5987 284.166 23.0528 284.804 22.6404C285.443 22.2223 286.268 22.0132 287.278 22.0132C288.184 22.0132 288.977 22.1991 289.657 22.5708C290.336 22.9366 290.864 23.4942 291.242 24.2433C291.619 24.9867 291.808 25.9275 291.808 27.0658V35.568H289.752V27.2052C289.752 26.154 289.479 25.3351 288.933 24.7486C288.388 24.1562 287.638 23.86 286.686 23.86C286.03 23.86 285.443 24.0023 284.926 24.2869C284.415 24.5714 284.012 24.9867 283.715 25.5326C283.419 26.0785 283.271 26.7406 283.271 27.5188ZM299.502 35.8816C298.655 35.8816 297.885 35.7219 297.194 35.4025C296.503 35.0773 295.954 34.6098 295.548 34C295.141 33.3844 294.938 32.641 294.938 31.7699C294.938 31.0033 295.089 30.3819 295.391 29.9057C295.693 29.4236 296.096 29.0461 296.602 28.7732C297.107 28.5002 297.664 28.297 298.274 28.1634C298.89 28.024 299.508 27.9137 300.13 27.8324C300.943 27.7278 301.602 27.6494 302.107 27.5972C302.618 27.5391 302.99 27.4433 303.222 27.3097C303.46 27.1761 303.579 26.9438 303.579 26.6128V26.5431C303.579 25.6836 303.344 25.0157 302.874 24.5395C302.409 24.0633 301.704 23.8252 300.757 23.8252C299.775 23.8252 299.006 24.0401 298.448 24.4698C297.891 24.8996 297.499 25.3584 297.272 25.8462L295.321 25.1493C295.67 24.3362 296.134 23.7032 296.715 23.2502C297.301 22.7914 297.94 22.472 298.631 22.292C299.328 22.1062 300.014 22.0132 300.687 22.0132C301.117 22.0132 301.611 22.0655 302.168 22.17C302.731 22.2688 303.274 22.4749 303.797 22.7885C304.326 23.1021 304.764 23.5755 305.113 24.2085C305.461 24.8415 305.635 25.6894 305.635 26.7522V35.568H303.579V33.756H303.475C303.335 34.0464 303.103 34.3571 302.778 34.6882C302.453 35.0192 302.02 35.3008 301.48 35.5331C300.94 35.7654 300.281 35.8816 299.502 35.8816ZM299.816 34.0348C300.629 34.0348 301.314 33.8751 301.872 33.5557C302.435 33.2363 302.859 32.8239 303.144 32.3187C303.434 31.8134 303.579 31.282 303.579 30.7245V28.8429C303.492 28.9474 303.301 29.0432 303.004 29.1304C302.714 29.2117 302.377 29.2843 301.994 29.3481C301.616 29.4062 301.248 29.4585 300.888 29.5049C300.533 29.5456 300.246 29.5804 300.025 29.6095C299.491 29.6792 298.991 29.7924 298.527 29.9492C298.068 30.1002 297.696 30.3296 297.412 30.6374C297.133 30.9394 296.994 31.3517 296.994 31.8744C296.994 32.5887 297.258 33.1288 297.786 33.4947C298.321 33.8548 298.997 34.0348 299.816 34.0348ZM314.789 40.8645C313.796 40.8645 312.942 40.7367 312.227 40.4812C311.513 40.2314 310.918 39.9004 310.442 39.4881C309.971 39.0815 309.597 38.646 309.318 38.1814L310.956 37.0315C311.141 37.2754 311.377 37.5542 311.661 37.8678C311.946 38.1872 312.335 38.463 312.829 38.6953C313.328 38.9335 313.981 39.0525 314.789 39.0525C315.869 39.0525 316.76 38.7912 317.463 38.2685C318.166 37.7458 318.517 36.927 318.517 35.8119V33.094H318.343C318.192 33.3379 317.977 33.6399 317.698 34C317.425 34.3542 317.03 34.6707 316.513 34.9495C316.002 35.2224 315.311 35.3589 314.44 35.3589C313.36 35.3589 312.39 35.1034 311.531 34.5923C310.677 34.0813 310 33.3379 309.501 32.3622C309.007 31.3866 308.76 30.2018 308.76 28.808C308.76 27.4375 309.001 26.244 309.483 25.2277C309.965 24.2056 310.636 23.4158 311.496 22.8582C312.355 22.2949 313.348 22.0132 314.475 22.0132C315.346 22.0132 316.037 22.1584 316.548 22.4488C317.065 22.7334 317.46 23.0586 317.733 23.4245C318.012 23.7845 318.227 24.0807 318.378 24.313H318.587V22.1875H320.573V35.9513C320.573 37.1012 320.312 38.0362 319.789 38.7563C319.272 39.4823 318.575 40.0137 317.698 40.3505C316.827 40.6931 315.857 40.8645 314.789 40.8645ZM314.719 33.5121C315.544 33.5121 316.24 33.3234 316.81 32.9459C317.379 32.5684 317.811 32.0254 318.108 31.3169C318.404 30.6084 318.552 29.7605 318.552 28.7732C318.552 27.8091 318.407 26.9583 318.116 26.2208C317.826 25.4832 317.396 24.9054 316.827 24.4872C316.258 24.0691 315.555 23.86 314.719 23.86C313.848 23.86 313.122 24.0807 312.541 24.5221C311.966 24.9635 311.533 25.5558 311.243 26.2992C310.959 27.0426 310.816 27.8672 310.816 28.7732C310.816 29.7024 310.961 30.5242 311.252 31.2385C311.548 31.947 311.984 32.5045 312.559 32.9111C313.139 33.3118 313.859 33.5121 314.719 33.5121ZM329.946 35.8468C328.657 35.8468 327.545 35.5622 326.61 34.993C325.681 34.4181 324.963 33.6167 324.458 32.5887C323.959 31.555 323.709 30.3528 323.709 28.9823C323.709 27.6117 323.959 26.4037 324.458 25.3584C324.963 24.3072 325.666 23.4883 326.566 22.9018C327.472 22.3094 328.529 22.0132 329.737 22.0132C330.434 22.0132 331.122 22.1294 331.802 22.3617C332.481 22.594 333.1 22.9715 333.657 23.4942C334.215 24.011 334.659 24.6963 334.99 25.55C335.321 26.4037 335.487 27.4549 335.487 28.7035V29.5746H325.172V27.7975H333.396C333.396 27.0426 333.245 26.3689 332.943 25.7765C332.647 25.1841 332.223 24.7166 331.671 24.374C331.125 24.0314 330.481 23.86 329.737 23.86C328.918 23.86 328.21 24.0633 327.612 24.4698C327.019 24.8705 326.563 25.3932 326.244 26.0378C325.925 26.6825 325.765 27.3736 325.765 28.1111V29.2959C325.765 30.3064 325.939 31.163 326.287 31.8657C326.642 32.5626 327.132 33.094 327.76 33.4599C328.387 33.8199 329.116 34 329.946 34C330.486 34 330.974 33.9245 331.41 33.7735C331.851 33.6167 332.231 33.3844 332.551 33.0766C332.87 32.763 333.117 32.3739 333.291 31.9093L335.278 32.4668C335.068 33.1404 334.717 33.7328 334.223 34.2439C333.73 34.7491 333.12 35.144 332.394 35.4286C331.668 35.7074 330.852 35.8468 329.946 35.8468ZM338.614 35.568V22.1875H340.6V24.2085H340.74C340.983 23.5464 341.425 23.0092 342.064 22.5969C342.702 22.1846 343.423 21.9784 344.224 21.9784C344.375 21.9784 344.564 21.9813 344.79 21.9871C345.017 21.9929 345.188 22.0016 345.304 22.0132V24.1039C345.235 24.0865 345.075 24.0604 344.825 24.0255C344.581 23.9849 344.323 23.9646 344.05 23.9646C343.399 23.9646 342.819 24.101 342.308 24.374C341.802 24.6411 341.402 25.0128 341.105 25.489C340.815 25.9594 340.67 26.4966 340.67 27.1006V35.568H338.614Z" fill="black"/>
</svg>
